<?xml version="1.0" encoding="utf-8"?>
<!-- Generator: Adobe Illustrator 22.0.1, SVG Export Plug-In . SVG Version: 6.00 Build 0)  -->
<svg version="1.1" xmlns="http://www.w3.org/2000/svg" xmlns:xlink="http://www.w3.org/1999/xlink" x="0px" y="0px"
	 viewBox="0 0 1440 1500" style="enable-background:new 0 0 1440 1500;" xml:space="preserve">
<style type="text/css">
	.st0{fill:#FFF6CA;}
	.st1{fill:#B3B3B3;}
	.st2{fill:#FFFFFF;}
	.st3{font-family:'Bebas';}
	.st4{font-size:100px;}
	.st5{fill:#636363;}
	.st6{font-family:'RoundedMplus1c-Light';}
	.st7{font-size:53px;}
	.st8{fill:#4D4D4D;}
	.st9{fill:#F2F2F2;}
	.st10{fill:#808080;}
	.st11{clip-path:url(#SVGID_2_);fill:#4D4D4D;}
	.st12{clip-path:url(#SVGID_4_);fill:#4D4D4D;}
	.st13{fill:#999999;}
	.st14{font-size:41px;}
	.st15{fill:none;stroke:#B3B3B3;stroke-width:2;stroke-linecap:round;stroke-miterlimit:10;}
	.st16{fill:none;stroke:#B3B3B3;stroke-width:2;stroke-linecap:round;stroke-miterlimit:10;stroke-dasharray:11.8281,9.8567;}
	.st17{font-size:33px;}
	.st18{fill:#666666;}
	.st19{font-family:'RoundedMplus1c-Medium';}
	.st20{font-size:18px;}
	.st21{letter-spacing:31;}
	.st22{fill:#D2D3D6;}
	.st23{fill:#E1A7A0;}
	.st24{fill:#8B9198;}
	.st25{fill:#937B7D;}
	.st26{font-size:24px;}
</style>
<g id="Layer_2">
	<rect y="749.9" class="st0" width="1440" height="750.1"/>
	<rect class="st1" width="1440" height="750.1"/>
	
		<rect x="682.6" y="706.8" transform="matrix(0.7071 0.7071 -0.7071 0.7071 737.1627 -291.1248)" class="st1" width="74.9" height="74.9"/>
</g>
<g id="Layer_1">
	<path class="st0" d="M722.2,724c-9.6,0-17.4-7.8-17.4-17.4v-23.5c0-9.6,7.8-17.4,17.4-17.4c9.6,0,17.4,7.8,17.4,17.4v23.5
		C739.6,716.2,731.8,724,722.2,724z M722.2,668.6c-8,0-14.4,6.5-14.4,14.4v23.5c0,8,6.5,14.4,14.4,14.4c8,0,14.4-6.5,14.4-14.4
		v-23.5C736.6,675.1,730.1,668.6,722.2,668.6z"/>
	<path class="st0" d="M722.2,685L722.2,685c-0.8,0-1.4-0.6-1.4-1.4V678c0-0.8,0.6-1.4,1.4-1.4l0,0c0.8,0,1.4,0.6,1.4,1.4v5.6
		C723.5,684.4,722.9,685,722.2,685z"/>
	<path class="st2" d="M720.8,741.5c-0.4,0-0.7-0.1-1-0.4c-0.1-0.1-0.1-0.1-0.2-0.2l0.2,0.2C720.1,741.3,720.4,741.5,720.8,741.5z"/>
	<path class="st0" d="M732.9,733.6c0,0.4-0.1,0.7-0.4,1l-9.1,9.1c0,0,0,0,0,0l-0.2,0.2c-0.3,0.2-0.6,0.4-0.9,0.4h0
		c-0.3,0-0.7-0.1-0.9-0.4l-0.2-0.2l0,0l-9.1-9.1c-0.5-0.5-0.5-1.4,0-1.9c0.3-0.3,0.6-0.4,1-0.4c0.4,0,0.7,0.1,1,0.4l8.4,8.4l8.4-8.4
		c0.5-0.5,1.4-0.5,1.9,0C732.7,732.9,732.9,733.2,732.9,733.6z"/>
	<path class="st2" d="M722,740.9c0,0.1-0.1,0.2-0.2,0.2c-0.3,0.3-0.6,0.4-1,0.4c0.3,0,0.7-0.1,0.9-0.4L722,740.9z"/>
	<text transform="matrix(1 0 0 1 462.1016 425.349)" class="st0 st3 st4">earth   cents</text>
	<text transform="matrix(1 0 0 1 320.5157 507.8423)" class="st5 st6 st7">Get Money. Save the Environment.</text>
	<polygon class="st8" points="723.8,300.9 730.3,260.6 717.2,260.6 	"/>
	<path class="st8" d="M703.3,99.6l-2.7-1.3c9-17.9,2.4-39.6-14.4-49.6c-0.7,0.6-1.5,0.9-2.4,0.9c-2,0-3.7-1.7-3.7-3.7
		c0-2,1.7-3.7,3.7-3.7s3.7,1.7,3.7,3.7c0,0,0,0.1,0,0.1C705.8,56.7,713,80.2,703.3,99.6z"/>
	<path class="st8" d="M767.5,45.8c0,2.1-1.7,3.7-3.7,3.7c-1,0-2-0.4-2.7-1.1c-7.4,5.1-12.6,12.6-14.9,21.3c-2.6,9.8-1.2,20,3.9,28.8
		l-2.6,1.5c-5.5-9.5-7-20.5-4.2-31.1c2.6-9.7,8.5-18,16.8-23.5c0.2-1.9,1.8-3.4,3.7-3.4C765.8,42.1,767.5,43.8,767.5,45.8z"/>
	
		<ellipse transform="matrix(0.7071 -0.7071 0.7071 0.7071 85.8065 605.7141)" class="st9" cx="774.1" cy="199.3" rx="21.1" ry="17.6"/>
	
		<ellipse transform="matrix(0.376 -0.9266 0.9266 0.376 268.5724 857.3641)" class="st9" cx="770.9" cy="229.3" rx="10.8" ry="12.9"/>
	<ellipse transform="matrix(0.7071 -0.7071 0.7071 0.7071 57.8441 533.5835)" class="st9" cx="673" cy="197" rx="17.6" ry="21.1"/>
	
		<ellipse transform="matrix(0.9266 -0.376 0.376 0.9266 -35.7126 270.9313)" class="st9" cx="676.2" cy="226.9" rx="12.9" ry="10.8"/>
	<path class="st0" d="M756,179.2c7.9,18.4,12.9,41,12.9,59c0,36.8-39.2,40.1-45.2,40.1c-7.9,0-45.2-3.3-45.2-40.1
		c0-18,5-40.5,12.9-59c-20.5-11.4-34.3-33.2-34.3-58.3c0-36.8,29.8-66.6,66.6-66.6c36.8,0,66.6,29.8,66.6,66.6
		C790.4,146,776.5,167.9,756,179.2z"/>
	<ellipse class="st10" cx="705.8" cy="112.5" rx="4.9" ry="9.4"/>
	<ellipse class="st10" cx="741.7" cy="112.5" rx="4.9" ry="9.4"/>
	<g>
		<defs>
			<path id="SVGID_1_" d="M723.8,200c-33.9,0-61.8-25.2-66.2-57.9c-0.4,2.9-0.6,5.8-0.6,8.8c0,36.9,29.9,66.8,66.8,66.8
				s66.8-29.9,66.8-66.8c0-3-0.2-5.9-0.6-8.8C785.6,174.7,757.6,200,723.8,200z"/>
		</defs>
		<clipPath id="SVGID_2_">
			<use xlink:href="#SVGID_1_"  style="overflow:visible;"/>
		</clipPath>
		<path class="st11" d="M756,179.3c7.9,18.4,12.9,41,12.9,59c0,36.8-39.2,40.1-45.2,40.1c-7.9,0-45.2-3.3-45.2-40.1
			c0-18,5-40.5,12.9-59c-20.5-11.4-34.3-33.2-34.3-58.3c0-36.8,29.8-66.6,66.6-66.6c36.8,0,66.6,29.8,66.6,66.6
			C790.4,146.1,776.5,167.9,756,179.3z"/>
	</g>
	<g>
		<defs>
			<path id="SVGID_3_" d="M756,179.2c7.9,18.4,12.9,41,12.9,59c0,36.8-39.2,40.1-45.2,40.1c-7.9,0-45.2-3.3-45.2-40.1
				c0-18,5-40.5,12.9-59c-20.5-11.4-34.3-33.2-34.3-58.3c0-36.8,29.8-66.6,66.6-66.6c36.8,0,66.6,29.8,66.6,66.6
				C790.4,146,776.5,167.9,756,179.2z"/>
		</defs>
		<clipPath id="SVGID_4_">
			<use xlink:href="#SVGID_3_"  style="overflow:visible;"/>
		</clipPath>
		<path class="st12" d="M723.8,242.2c-33.9,0-61.8-25.2-66.2-57.9c-0.4,2.9-0.6,5.8-0.6,8.8c0,36.9,29.9,66.8,66.8,66.8
			s66.8-29.9,66.8-66.8c0-3-0.2-5.9-0.6-8.8C785.6,217,757.6,242.2,723.8,242.2z"/>
	</g>
</g>
<g id="Layer_3">
	<text transform="matrix(1 0 0 1 403.3626 869.3471)" class="st13 st6 st14">Make use of those empty bottles.</text>
	<g>
		<g>
			<line class="st15" x1="720" y1="972.7" x2="720" y2="978.7"/>
			<line class="st16" x1="720" y1="988.6" x2="720" y2="1439.1"/>
			<line class="st15" x1="720" y1="1444" x2="720" y2="1450"/>
		</g>
	</g>
	<text transform="matrix(1 0 0 1 277.2579 952.0295)" class="st1 st3 st17">inspiration</text>
	<text transform="matrix(1 0 0 1 974.5602 952.03)" class="st1 st3 st17">how  it  works</text>
	<text transform="matrix(1 0 0 1 68.611 1009.0206)"><tspan x="0" y="0" class="st18 st19 st20">Problem</tspan><tspan x="0" y="21.6" class="st13 st6 st20 st21">	</tspan><tspan x="36" y="21.6" class="st13 st6 st20">Americans waste about 425 beverage containers per capita per year </tspan><tspan x="0" y="43.2" class="st13 st6 st20 st21">	</tspan><tspan x="36" y="43.2" class="st13 st6 st20">in landfill, litter, etc. Bottles are usually replaced with cans and </tspan><tspan x="0" y="64.8" class="st13 st6 st20 st21">	</tspan><tspan x="36" y="64.8" class="st13 st6 st20">bottles made from virgin materials which are more energy-intensive </tspan><tspan x="0" y="86.4" class="st13 st6 st20 st21">	</tspan><tspan x="36" y="86.4" class="st13 st6 st20">than recycled materials. This causes emissions of a host of toxics </tspan><tspan x="0" y="108" class="st13 st6 st20 st21">	</tspan><tspan x="36" y="108" class="st13 st6 st20">to the air and water and increases greenhouse gas emissions. </tspan><tspan x="0" y="151.2" class="st18 st19 st20">So, how are we helping?</tspan><tspan x="0" y="172.8" class="st13 st6 st20 st21">	</tspan><tspan x="36" y="172.8" class="st13 st6 st20">The US recycling rate is about 33% while that in stats what have </tspan><tspan x="0" y="194.4" class="st13 st6 st20 st21">	</tspan><tspan x="36" y="194.4" class="st13 st6 st20">container deposit laws have a 70% average rate of beverage </tspan><tspan x="0" y="216" class="st13 st6 st20 st21">	</tspan><tspan x="36" y="216" class="st13 st6 st20">recycling rate. This is a significant change in the amount of harm </tspan><tspan x="0" y="237.6" class="st13 st6 st20 st21">	</tspan><tspan x="36" y="237.6" class="st13 st6 st20">we do to the planet. </tspan><tspan x="0" y="259.2" class="st13 st6 st20 st21">	</tspan><tspan x="0" y="280.8" class="st13 st6 st20 st21">	</tspan><tspan x="36" y="280.8" class="st13 st6 st20">While some states already have a program for exchanging cans for </tspan><tspan x="0" y="302.4" class="st13 st6 st20 st21">	</tspan><tspan x="36" y="302.4" class="st13 st6 st20">cash, EarthCent brings some incentive to states to make this a </tspan><tspan x="0" y="324" class="st13 st6 st20 st21">	</tspan><tspan x="36" y="324" class="st13 st6 st20">program and something available. Eventually when this software </tspan><tspan x="0" y="345.6" class="st13 st6 st20 st21">	</tspan><tspan x="36" y="345.6" class="st13 st6 st20">gets accurate enough, there will not be as much labor needed to </tspan><tspan x="0" y="367.2" class="st13 st6 st20 st21">	</tspan><tspan x="36" y="367.2" class="st13 st6 st20">make this happen. </tspan></text>
	<g>
		<path class="st22" d="M1057.3,1180.3c0.3-1,1-1.4,1.6-2c14-14,27.9-27.9,41.9-41.9c2-2,2-1.6,0-3.6c-14-14-27.9-27.9-41.9-41.9
			c-0.6-0.6-1.3-1-1.5-1.9c0.3-0.6,0.9-0.4,1.3-0.4c11.1,0,22.2-0.1,33.4,0.1c2.9,0,5.8,0.3,8.7,0.3c37.5-0.8,75-0.2,112.5-0.3
			c37.4-0.1,74.9-0.1,112.3,0c9.6,0,18.7,2.6,26.7,8.1c10.1,7,16.4,16.5,18.9,28.6c0.8,3.7,1.2,7.5,1.2,11.3c0,13.7,0,27.4,0,41
			c0,1.6-0.4,2.8-1.6,4c-14.3,14.2-28.6,28.5-42.8,42.8c0,0-0.1,0.1-0.1,0.1c-1.4,1.4-1.5,1.4-2.9,0c-14.1-14.1-28.2-28.2-42.3-42.4
			c-1.2-1.2-2.3-1.6-4-1.6c-57.7,0-115.3,0.1-173-0.1c-12.7,0-25.4-0.2-38.1-0.3c-2.7,0-5.3,0.6-8,0.4
			C1058.7,1180.5,1058.1,1180.7,1057.3,1180.3z M1124.8,1150.4c0.7-1.2,1.2-2.1,1.8-2.9c3-4.4,5.9-8.8,8.9-13.2
			c3-4.4,4.4-9.2,4.3-14.6c-0.1-4.9-4.5-10-8.4-10.9c-1.8-0.5-3.6-0.6-5.5-0.3c-3.2,0.6-5.8,2-7.7,4.7c-1.9,2.7-2.2,5.7-2.4,8.8
			c-0.1,1.3,0.1,1.4,1.4,1.4c1.5,0,3,0,4.6,0c1.1,0,1.4-0.4,1.4-1.5c-0.1-1.7,0.3-3.3,1.2-4.7c1.4-2.3,4.5-2.7,6.4-0.9
			c1.2,1.1,1.8,2.6,1.8,4.2c0.1,1.6-0.3,3.1-0.8,4.7c-1,3.2-2.7,6-4.6,8.8c-2.9,4.3-6,8.4-8.9,12.7c-2.8,4-2.7,4.1-2.7,9
			c0,2.1,0,2.1,2,2.1c2.4,0,4.8,0,7.2,0c4.2,0,8.4,0,12.6,0c1.6,0,1.6,0,1.7-1.6c0-1.2,0-2.5,0-3.7c0-2.1,0-2.1-2-2.1
			C1133.3,1150.4,1129.3,1150.4,1124.8,1150.4z M1159.7,1166.6c0.4-0.3,0.6-0.4,0.6-0.5c0.1-0.7,0.1-1.4,0.1-2.1
			c-0.2-10.8,0.1-21.7-0.3-32.5c-0.3-8.3-0.1-16.6-0.1-24.8c0-0.9,0-1.8,0-2.7c0-0.5,0.1-1.3-0.6-1.4c-0.8,0-0.5,0.8-0.5,1.3
			c-0.1,0.4,0,0.8,0,1.2c0.1,8.5,0.1,17.1,0.3,25.6c0.2,9.8,0.1,19.6,0.2,29.4C1159.3,1162.2,1159.6,1164.3,1159.7,1166.6z"/>
		<path class="st23" d="M1280.9,1207.5c0.5,0.7,0.9,1.4,1.5,2c13.8,13.8,27.6,27.6,41.5,41.5c0.2,0.2,0.4,0.4,0.6,0.6
			c1.4,1.4,1.4,1.4,2.9,0c14.1-14.1,28.1-28.1,42.2-42.2c0.6-0.6,1.1-1.3,1.9-1.6c0.5,0.7,0.3,1.4,0.3,2.1c0,14.2,0,28.5,0,42.7
			c0,15.5,0.1,31.1,0,46.6c-0.1,10.9-3.8,20.6-10.8,29c-7.3,8.6-16.6,13.7-27.7,15.6c-1.9,0.3-3.8,0.6-5.8,0.5c-0.8,0-1.7,0-2.5,0
			c-64.2,0-128.5,0-192.7,0c-9.2,0-18.4,0-27.6,0c-1.5,0-2.6-0.4-3.6-1.5c-14.2-14.2-28.4-28.4-42.6-42.7c-0.2-0.2-0.5-0.5-0.7-0.7
			c-0.7-0.6-0.7-1.3,0-1.9c0.3-0.3,0.6-0.6,0.9-0.9c14.1-14.1,28.2-28.2,42.3-42.4c1.2-1.2,2.3-1.7,4-1.7c57.5,0,114.9,0,172.4,0
			c3.3,0,2.9,0.4,2.9-2.9c0-13.3,0-26.5,0-39.8c0-0.7-0.1-1.5,0.1-2.2C1280.5,1207.8,1280.7,1207.6,1280.9,1207.5z M1134,1298.2
			c2.5-1.9,4.1-4.1,4.8-7c0.7-2.8,0.7-5.6,0-8.4c-1-4.1-3.6-6.8-7.6-7.9c-1.5-0.4-3-0.2-4.5-0.2c-1.8,0-3.4,0.5-4.9,1.5
			c-3.8,2.6-4.9,6.4-4.9,10.8c0,0.7,0.4,1,1.1,1c1.4,0,2.8,0,4.1,0c2.1,0,2.1,0,2.2-2.2c0-0.3,0-0.7,0-1c0.3-2.1,2-3.4,4.3-3.3
			c2.2,0,3.3,1.1,3.7,3.4c0.2,1.4,0.2,2.7,0,4.1c-0.4,4.1-2.4,6.2-6.5,6.7c-1.1,0.1-1.5,0.6-1.4,1.6c0,1.1,0,2.2,0,3.3
			c0,1.5,0,1.6,1.6,1.7c3,0.2,5.7,2.5,6.1,5.3c0.3,2,0.3,4,0.1,6c-0.1,1.1-0.5,2.2-1.5,2.8c-3.3,2.2-7,0.5-7.5-3.3
			c-0.2-1.5-0.3-1.5-1.8-1.6c-1.5,0-2.8,0.6-4.3,0.4c-1-0.1-1.3,0.5-1.3,1.4c0.1,2,0.5,4,1.6,5.7c2.5,3.9,5.9,5.8,10.7,5.8
			c4.7,0,10.1-3.6,11.4-9.1c0.5-2.2,0.2-4.4,0.3-6.6c0.1-2.7-0.8-5-2.2-7.2C1136.6,1300.3,1135.2,1299.5,1134,1298.2z
			 M1160.2,1331.7c0.5-0.9,0.3-1.7,0.3-2.5c-0.2-10.3,0.1-20.5-0.3-30.8c-0.3-9.4-0.1-18.9-0.1-28.4c0-0.6,0-1.2-0.1-1.8
			c0-0.1-0.3-0.3-0.4-0.3c-0.2,0-0.4,0.2-0.5,0.3c-0.1,0.6-0.1,1.2-0.1,1.8c0.1,7.5,0,15,0.3,22.5c0.2,5.6,0.1,11.3,0.1,17
			c0,7-0.1,13.9,0.4,20.9C1159.6,1330.8,1159.4,1331.3,1160.2,1331.7z"/>
		<path class="st23" d="M759.6,1179.5c0.6-0.5,1.3-0.8,1.8-1.4c13.9-13.9,27.8-27.7,41.6-41.6c0.3-0.3,0.6-0.6,0.9-0.9
			c1.1-1.1,1.1-1.1-0.1-2.3c-6.9-6.9-13.8-13.8-20.6-20.7c-7.5-7.5-15-15-22.6-22.6c-0.4-0.4-0.9-0.7-1.1-1.4c0.5-0.3,1-0.2,1.5-0.2
			c88.5,0,177,0,265.4,0c1.4,0,2.4,0.4,3.4,1.4c14.3,14.3,28.6,28.6,42.9,43c0.2,0.2,0.4,0.4,0.6,0.6c0.9,0.7,0.7,1.3-0.1,2
			c-1.6,1.6-3.2,3.2-4.8,4.8c-12.7,12.7-25.5,25.5-38.2,38.3c-1.1,1.1-2.2,1.6-3.8,1.6c-73.4,0-146.7,0-220.1,0
			c-14.8,0-29.6,0-44.3,0c-0.7,0-1.5,0-2.2,0C759.8,1180,759.7,1179.8,759.6,1179.5z M834.3,1133.4c0-7.1,0-14.2,0-21.3
			c0-3.5,0.4-3-3.1-3.1c-1.3,0-2.1,0.3-2.9,1.5c-1.3,2-3.2,3.5-5.5,4.2c-2.6,0.7-2.1,0.9-2.2,3.1c0,0.4,0,0.8,0,1.2
			c0,0.9,0.4,1.2,1.3,1.2c1.2,0,2.5,0,3.7,0c0.9,0,1.3,0.4,1.2,1.2c0,0.5,0,1,0,1.5c0,10.8,0,21.5,0,32.3c0,0.6,0,1.1,0,1.7
			c0,0.7,0.4,1,1,1c1.8,0,3.6,0,5.4,0c0.7,0,1-0.3,1-1c0-0.6,0-1.1,0-1.7C834.3,1147.9,834.3,1140.6,834.3,1133.4z M858.7,1166.3
			c0.5-0.7,0.4-1.5,0.4-2.2c-0.1-8.8,0-17.5-0.3-26.3c-0.3-10.5-0.1-21-0.2-31.5c0-1.3-0.1-2.6-0.8-4c-0.6,1-0.4,1.7-0.4,2.5
			c0.1,8.5,0,17,0.3,25.4c0.3,10.4,0.1,20.8,0.2,31.3C857.9,1163.2,858.3,1164.7,858.7,1166.3z"/>
		<path class="st22" d="M1074,1253.9c-1,1.2-2,2.4-3.1,3.5c-13.4,13.4-26.9,26.9-40.3,40.3c-2,2-2,2,0,4
			c13.9,13.9,27.8,27.8,41.8,41.8c0.5,0.5,1.2,1,2,1.6c-1.1,0.6-1.8,0.5-2.5,0.5c-21.2,0-42.4,0-63.6,0c-66.9,0-133.7,0-200.6,0
			c-1.9,0-3.2-0.6-4.5-1.9c-13.9-14-27.8-27.9-41.7-41.8c-0.3-0.3-0.7-0.7-1-1c-1-1.1-1-1.2,0-2.2c0.2-0.3,0.5-0.5,0.7-0.7
			c14.1-14.1,28.2-28.2,42.3-42.4c1.2-1.2,2.3-1.6,4-1.6c87.4,0,174.9,0,262.3,0c1.4,0,2.8,0.2,4.1-0.4
			C1073.8,1253.7,1073.9,1253.8,1074,1253.9z M838.4,1290.5c0-4.6,0-9.2,0-13.9c0-1-0.3-1.5-1.4-1.5c-1.4,0.1-2.8,0-4.1,0
			c-2,0-1.9,0-2.7,1.8c-3.8,9.1-7.7,18.3-11.5,27.4c-0.3,0.7-0.5,1.4-0.5,2.2c0,1.7,0,3.5,0,5.2c0,1.5,0.1,1.5,1.5,1.5
			c3.2,0,6.3,0,9.5,0c1.8,0,1.8,0,1.8,1.9c0,2.3,0,4.7,0,7c0,1.8,0,1.8,1.9,1.8c1.2,0,2.5,0,3.7,0c1.8,0,1.8,0,1.8-1.9
			c0-2.5,0-5,0-7.5c0-0.9,0.2-1.4,1.3-1.4c1.1,0,2.4,0.5,3.1-0.4c0.6-0.8,0.2-2.1,0.2-3.2c0-0.3,0-0.6,0-0.8c0-3.2,0.3-2.9-2.8-2.9
			c-1.7,0-1.7,0-1.8-1.7C838.4,1299.6,838.4,1295,838.4,1290.5z M861.1,1326.3c0-2.4-0.2-4.8-0.3-7.2c-0.3-12.6,0.1-25.2-0.4-37.9
			c-0.2-3.8,0-7.6-0.1-11.4c0-0.6,0-1.1-0.1-1.7c0-0.1-0.2-0.3-0.4-0.4c-0.3-0.1-0.5,0.1-0.6,0.4c-0.1,0.4,0,0.8-0.1,1.2
			c-0.2,1.5,0.3,2.9,0.3,4.3c0.2,12.5-0.1,25,0.4,37.4c0.2,6,0.1,12,0.1,18c0,0.6,0,1.2,0,1.9c0,0.3,0.1,0.6,0.5,0.6
			c0.5,0.1,0.6-0.3,0.6-0.6C861.1,1329.5,861.1,1327.9,861.1,1326.3z"/>
		<path class="st24" d="M1124.8,1150.4c4.4,0,8.4,0,12.4,0c2,0,2,0,2,2.1c0,1.2,0,2.5,0,3.7c0,1.6,0,1.6-1.7,1.6
			c-4.2,0-8.4,0-12.6,0c-2.4,0-4.8,0-7.2,0c-2,0-2,0-2-2.1c0-4.9-0.1-5,2.7-9c2.9-4.3,6-8.4,8.9-12.7c1.9-2.7,3.6-5.5,4.6-8.8
			c0.5-1.5,0.8-3.1,0.8-4.7c-0.1-1.6-0.6-3.1-1.8-4.2c-1.9-1.8-5.1-1.4-6.4,0.9c-0.9,1.4-1.3,3-1.2,4.7c0,1-0.3,1.5-1.4,1.5
			c-1.5-0.1-3,0-4.6,0c-1.4,0-1.5-0.1-1.4-1.4c0.2-3.1,0.6-6.2,2.4-8.8c1.9-2.7,4.4-4.2,7.7-4.7c1.9-0.3,3.7-0.2,5.5,0.3
			c3.9,1,8.3,6,8.4,10.9c0.1,5.4-1.3,10.2-4.3,14.6c-3,4.4-5.9,8.8-8.9,13.2C1126,1148.3,1125.5,1149.2,1124.8,1150.4z"/>
		<path class="st24" d="M1159.7,1166.6c-0.2-2.3-0.4-4.3-0.4-6.4c-0.1-9.8,0.1-19.6-0.2-29.4c-0.2-8.5-0.3-17.1-0.3-25.6
			c0-0.4,0-0.8,0-1.2c0.1-0.5-0.3-1.3,0.5-1.3c0.7,0,0.6,0.8,0.6,1.4c0,0.9,0,1.8,0,2.7c0,8.3-0.2,16.6,0.1,24.8
			c0.4,10.8,0.2,21.7,0.3,32.5c0,0.7,0,1.4-0.1,2.1C1160.3,1166.1,1160.2,1166.2,1159.7,1166.6z"/>
		<path class="st25" d="M1134,1298.2c1.2,1.3,2.6,2.1,3.5,3.5c1.4,2.2,2.3,4.5,2.2,7.2c-0.1,2.2,0.2,4.4-0.3,6.6
			c-1.3,5.5-6.7,9.1-11.4,9.1c-4.8,0-8.2-1.9-10.7-5.8c-1.1-1.7-1.5-3.7-1.6-5.7c0-0.9,0.2-1.5,1.3-1.4c1.5,0.1,2.9-0.4,4.3-0.4
			c1.5,0,1.6,0.1,1.8,1.6c0.5,3.9,4.3,5.5,7.5,3.3c1-0.7,1.4-1.8,1.5-2.8c0.2-2,0.2-4-0.1-6c-0.4-2.8-3.1-5.1-6.1-5.3
			c-1.6-0.1-1.6-0.1-1.6-1.7c0-1.1,0-2.2,0-3.3c0-1,0.4-1.5,1.4-1.6c4.2-0.5,6.1-2.6,6.5-6.7c0.1-1.4,0.2-2.7,0-4.1
			c-0.4-2.3-1.4-3.3-3.7-3.4c-2.3,0-4,1.3-4.3,3.3c0,0.3,0,0.7,0,1c-0.1,2.2-0.1,2.2-2.2,2.2c-1.4,0-2.8,0-4.1,0
			c-0.6,0-1.1-0.2-1.1-1c-0.1-4.4,1-8.2,4.9-10.8c1.5-1,3.1-1.5,4.9-1.5c1.5,0,3.1-0.2,4.5,0.2c4,1.2,6.6,3.9,7.6,7.9
			c0.7,2.8,0.6,5.6,0,8.4C1138.1,1294.1,1136.5,1296.3,1134,1298.2z"/>
		<path class="st25" d="M1160.2,1331.7c-0.7-0.4-0.5-0.9-0.5-1.4c-0.4-7-0.4-13.9-0.4-20.9c0-5.7,0.2-11.3-0.1-17
			c-0.3-7.5-0.3-15-0.3-22.5c0-0.6,0-1.2,0.1-1.8c0-0.1,0.3-0.3,0.5-0.3c0.2,0,0.4,0.2,0.4,0.3c0.1,0.6,0.1,1.2,0.1,1.8
			c0,9.5-0.2,18.9,0.1,28.4c0.4,10.3,0.2,20.5,0.3,30.8C1160.4,1330,1160.6,1330.8,1160.2,1331.7z"/>
		<path class="st25" d="M834.3,1133.4c0,7.3,0,14.5,0,21.8c0,0.6,0,1.1,0,1.7c0,0.7-0.3,1-1,1c-1.8,0-3.6,0-5.4,0c-0.7,0-1-0.3-1-1
			c0-0.6,0-1.1,0-1.7c0-10.8,0-21.5,0-32.3c0-0.5,0-1,0-1.5c0-0.9-0.3-1.3-1.2-1.2c-1.2,0-2.5,0-3.7,0c-0.9,0-1.3-0.3-1.3-1.2
			c0-0.4,0-0.8,0-1.2c0.1-2.2-0.4-2.4,2.2-3.1c2.3-0.6,4.2-2.2,5.5-4.2c0.8-1.2,1.6-1.5,2.9-1.5c3.5,0.1,3.1-0.4,3.1,3.1
			C834.3,1119.2,834.3,1126.3,834.3,1133.4z"/>
		<path class="st25" d="M858.7,1166.3c-0.4-1.6-0.7-3.2-0.8-4.8c0-10.4,0.2-20.9-0.2-31.3c-0.3-8.5-0.2-17-0.3-25.4
			c0-0.7-0.2-1.5,0.4-2.5c0.7,1.4,0.8,2.7,0.8,4c0,10.5-0.2,21,0.2,31.5c0.3,8.8,0.2,17.5,0.3,26.3
			C859.1,1164.9,859.2,1165.6,858.7,1166.3z"/>
		<path class="st24" d="M838.4,1290.5c0,4.6,0,9.1,0,13.7c0,1.7,0,1.7,1.8,1.7c3.2,0,2.8-0.3,2.8,2.9c0,0.3,0,0.6,0,0.8
			c-0.1,1.1,0.4,2.4-0.2,3.2c-0.7,0.9-2.1,0.4-3.1,0.4c-1,0-1.3,0.5-1.3,1.4c0,2.5,0,5,0,7.5c0,1.8,0,1.8-1.8,1.9
			c-1.2,0-2.5,0-3.7,0c-1.8,0-1.9,0-1.9-1.8c0-2.3,0-4.7,0-7c0-1.8,0-1.9-1.8-1.9c-3.2,0-6.3,0-9.5,0c-1.5,0-1.5-0.1-1.5-1.5
			c0-1.7,0-3.5,0-5.2c0-0.8,0.2-1.5,0.5-2.2c3.9-9.1,7.7-18.3,11.5-27.4c0.8-1.8,0.7-1.8,2.7-1.8c1.4,0,2.8,0,4.1,0
			c1.1,0,1.4,0.4,1.4,1.5C838.4,1281.2,838.4,1285.8,838.4,1290.5z M830.9,1292.2c-0.1,0-0.3-0.1-0.4-0.1c-1.8,4.5-3.6,9-5.5,13.8
			c1.7,0,3,0,4.4,0c1.5,0,1.5-0.1,1.5-1.5C831,1300.3,830.9,1296.2,830.9,1292.2z"/>
		<path class="st24" d="M861.1,1326.3c0,1.6,0,3.2,0,4.8c0,0.4-0.2,0.7-0.6,0.6c-0.3,0-0.4-0.3-0.5-0.6c0-0.6,0-1.2,0-1.9
			c0-6,0.1-12-0.1-18c-0.5-12.5-0.2-25-0.4-37.4c0-1.4-0.5-2.9-0.3-4.3c0-0.4,0-0.8,0.1-1.2c0-0.3,0.3-0.5,0.6-0.4
			c0.2,0,0.4,0.2,0.4,0.4c0.1,0.5,0.1,1.1,0.1,1.7c0,3.8-0.1,7.6,0.1,11.4c0.6,12.6,0.2,25.2,0.4,37.9
			C860.9,1321.5,861.1,1323.9,861.1,1326.3z"/>
		<path class="st22" d="M830.9,1292.2c0,4.1,0,8.1,0,12.2c0,1.4-0.1,1.5-1.5,1.5c-1.3,0-2.7,0-4.4,0c1.9-4.8,3.7-9.3,5.5-13.8
			C830.7,1292.1,830.8,1292.1,830.9,1292.2z"/>
	</g>
</g>
<g id="Layer_4">
	<text transform="matrix(1 0 0 1 880.0893 1126.0544)"><tspan x="0" y="0" class="st18 st6 st26">Collect </tspan><tspan x="0" y="28.8" class="st18 st6 st26">Cans/Bottles</tspan></text>
	<text transform="matrix(1 0 0 1 1179.0894 1126.0547)"><tspan x="0" y="0" class="st18 st6 st26">Go to Recyling</tspan><tspan x="0" y="28.8" class="st18 st6 st26">Location</tspan></text>
	<text transform="matrix(1 0 0 1 1179.0896 1292.4636)"><tspan x="0" y="0" class="st18 st6 st26">Scan Item</tspan><tspan x="0" y="28.8" class="st18 st6 st26">Through AI</tspan></text>
	<polygon style="fill:none;" points="1123.9,1503.1 1126.3,1503.1 1126.3,1503.1 1123.9,1503.1 	"/>
	<text transform="matrix(1 0 0 1 880.0892 1292.4633)"><tspan x="0" y="0" class="st18 st6 st26">Collect </tspan><tspan x="0" y="28.8" class="st18 st6 st26">Refund!</tspan></text>
</g>
</svg>
