<?xml version="1.0" encoding="utf-8"?>
<!-- Generator: Adobe Illustrator 22.0.1, SVG Export Plug-In . SVG Version: 6.00 Build 0)  -->
<svg version="1.1" xmlns="http://www.w3.org/2000/svg" xmlns:xlink="http://www.w3.org/1999/xlink" x="0px" y="0px"
	 viewBox="0 0 1440 1500" style="enable-background:new 0 0 1440 1500;" xml:space="preserve">
<style type="text/css">
	.st0{fill:#FFF6CA;}
	.st1{fill:#B3B3B3;}
	.st2{fill:#FFFFFF;}
	.st3{font-family:'Bebas';}
	.st4{font-size:100px;}
	.st5{fill:#636363;}
	.st6{font-family:'RoundedMplus1c-Light';}
	.st7{font-size:53px;}
	.st8{fill:#4D4D4D;}
	.st9{fill:#F2F2F2;}
	.st10{fill:#808080;}
	.st11{clip-path:url(#SVGID_2_);fill:#4D4D4D;}
	.st12{clip-path:url(#SVGID_4_);fill:#4D4D4D;}
	.st13{fill:#999999;}
	.st14{font-size:41px;}
	.st15{fill:none;stroke:#B3B3B3;stroke-width:2;stroke-linecap:round;stroke-miterlimit:10;}
	.st16{fill:none;stroke:#B3B3B3;stroke-width:2;stroke-linecap:round;stroke-miterlimit:10;stroke-dasharray:11.8281,9.8567;}
	.st17{font-size:33px;}
	.st18{font-size:16px;}
</style>
<g id="Layer_2">
	<rect y="749.9" class="st0" width="1440" height="750.1"/>
	<rect class="st1" width="1440" height="750.1"/>
	
		<rect x="682.6" y="706.8" transform="matrix(0.7071 0.7071 -0.7071 0.7071 737.1627 -291.1248)" class="st1" width="74.9" height="74.9"/>
</g>
<g id="Layer_1">
	<path class="st0" d="M722.2,724c-9.6,0-17.4-7.8-17.4-17.4v-23.5c0-9.6,7.8-17.4,17.4-17.4c9.6,0,17.4,7.8,17.4,17.4v23.5
		C739.6,716.2,731.8,724,722.2,724z M722.2,668.6c-8,0-14.4,6.5-14.4,14.4v23.5c0,8,6.5,14.4,14.4,14.4c8,0,14.4-6.5,14.4-14.4
		v-23.5C736.6,675.1,730.1,668.6,722.2,668.6z"/>
	<path class="st0" d="M722.2,685L722.2,685c-0.8,0-1.4-0.6-1.4-1.4V678c0-0.8,0.6-1.4,1.4-1.4l0,0c0.8,0,1.4,0.6,1.4,1.4v5.6
		C723.5,684.4,722.9,685,722.2,685z"/>
	<path class="st2" d="M720.8,741.5c-0.4,0-0.7-0.1-1-0.4c-0.1-0.1-0.1-0.1-0.2-0.2l0.2,0.2C720.1,741.3,720.4,741.5,720.8,741.5z"/>
	<path class="st0" d="M732.9,733.6c0,0.4-0.1,0.7-0.4,1l-9.1,9.1c0,0,0,0,0,0l-0.2,0.2c-0.3,0.2-0.6,0.4-0.9,0.4h0
		c-0.3,0-0.7-0.1-0.9-0.4l-0.2-0.2l0,0l-9.1-9.1c-0.5-0.5-0.5-1.4,0-1.9c0.3-0.3,0.6-0.4,1-0.4c0.4,0,0.7,0.1,1,0.4l8.4,8.4l8.4-8.4
		c0.5-0.5,1.4-0.5,1.9,0C732.7,732.9,732.9,733.2,732.9,733.6z"/>
	<path class="st2" d="M722,740.9c0,0.1-0.1,0.2-0.2,0.2c-0.3,0.3-0.6,0.4-1,0.4c0.3,0,0.7-0.1,0.9-0.4L722,740.9z"/>
	<text transform="matrix(1 0 0 1 462.1016 425.349)" class="st0 st3 st4">earth   cents</text>
	<text transform="matrix(1 0 0 1 320.5157 507.8423)" class="st5 st6 st7">Get Money. Save the Environment.</text>
	<polygon class="st8" points="723.8,300.9 730.3,260.6 717.2,260.6 	"/>
	<path class="st8" d="M703.3,99.6l-2.7-1.3c9-17.9,2.4-39.6-14.4-49.6c-0.7,0.6-1.5,0.9-2.4,0.9c-2,0-3.7-1.7-3.7-3.7
		c0-2,1.7-3.7,3.7-3.7s3.7,1.7,3.7,3.7c0,0,0,0.1,0,0.1C705.8,56.7,713,80.2,703.3,99.6z"/>
	<path class="st8" d="M767.5,45.8c0,2.1-1.7,3.7-3.7,3.7c-1,0-2-0.4-2.7-1.1c-7.4,5.1-12.6,12.6-14.9,21.3c-2.6,9.8-1.2,20,3.9,28.8
		l-2.6,1.5c-5.5-9.5-7-20.5-4.2-31.1c2.6-9.7,8.5-18,16.8-23.5c0.2-1.9,1.8-3.4,3.7-3.4C765.8,42.1,767.5,43.8,767.5,45.8z"/>
	
		<ellipse transform="matrix(0.7071 -0.7071 0.7071 0.7071 85.8065 605.7141)" class="st9" cx="774.1" cy="199.3" rx="21.1" ry="17.6"/>
	
		<ellipse transform="matrix(0.376 -0.9266 0.9266 0.376 268.5724 857.3641)" class="st9" cx="770.9" cy="229.3" rx="10.8" ry="12.9"/>
	<ellipse transform="matrix(0.7071 -0.7071 0.7071 0.7071 57.8441 533.5835)" class="st9" cx="673" cy="197" rx="17.6" ry="21.1"/>
	
		<ellipse transform="matrix(0.9266 -0.376 0.376 0.9266 -35.7126 270.9313)" class="st9" cx="676.2" cy="226.9" rx="12.9" ry="10.8"/>
	<path class="st0" d="M756,179.2c7.9,18.4,12.9,41,12.9,59c0,36.8-39.2,40.1-45.2,40.1c-7.9,0-45.2-3.3-45.2-40.1
		c0-18,5-40.5,12.9-59c-20.5-11.4-34.3-33.2-34.3-58.3c0-36.8,29.8-66.6,66.6-66.6c36.8,0,66.6,29.8,66.6,66.6
		C790.4,146,776.5,167.9,756,179.2z"/>
	<ellipse class="st10" cx="705.8" cy="112.5" rx="4.9" ry="9.4"/>
	<ellipse class="st10" cx="741.7" cy="112.5" rx="4.9" ry="9.4"/>
	<g>
		<defs>
			<path id="SVGID_1_" d="M723.8,200c-33.9,0-61.8-25.2-66.2-57.9c-0.4,2.9-0.6,5.8-0.6,8.8c0,36.9,29.9,66.8,66.8,66.8
				s66.8-29.9,66.8-66.8c0-3-0.2-5.9-0.6-8.8C785.6,174.7,757.6,200,723.8,200z"/>
		</defs>
		<clipPath id="SVGID_2_">
			<use xlink:href="#SVGID_1_"  style="overflow:visible;"/>
		</clipPath>
		<path class="st11" d="M756,179.3c7.9,18.4,12.9,41,12.9,59c0,36.8-39.2,40.1-45.2,40.1c-7.9,0-45.2-3.3-45.2-40.1
			c0-18,5-40.5,12.9-59c-20.5-11.4-34.3-33.2-34.3-58.3c0-36.8,29.8-66.6,66.6-66.6c36.8,0,66.6,29.8,66.6,66.6
			C790.4,146.1,776.5,167.9,756,179.3z"/>
	</g>
	<g>
		<defs>
			<path id="SVGID_3_" d="M756,179.2c7.9,18.4,12.9,41,12.9,59c0,36.8-39.2,40.1-45.2,40.1c-7.9,0-45.2-3.3-45.2-40.1
				c0-18,5-40.5,12.9-59c-20.5-11.4-34.3-33.2-34.3-58.3c0-36.8,29.8-66.6,66.6-66.6c36.8,0,66.6,29.8,66.6,66.6
				C790.4,146,776.5,167.9,756,179.2z"/>
		</defs>
		<clipPath id="SVGID_4_">
			<use xlink:href="#SVGID_3_"  style="overflow:visible;"/>
		</clipPath>
		<path class="st12" d="M723.8,242.2c-33.9,0-61.8-25.2-66.2-57.9c-0.4,2.9-0.6,5.8-0.6,8.8c0,36.9,29.9,66.8,66.8,66.8
			s66.8-29.9,66.8-66.8c0-3-0.2-5.9-0.6-8.8C785.6,217,757.6,242.2,723.8,242.2z"/>
	</g>
</g>
<g id="Layer_3">
	<text transform="matrix(1 0 0 1 403.3626 869.3471)" class="st13 st6 st14">Make use of those empty bottles.</text>
	<g>
		<g>
			<line class="st15" x1="720" y1="972.7" x2="720" y2="978.7"/>
			<line class="st16" x1="720" y1="988.6" x2="720" y2="1439.1"/>
			<line class="st15" x1="720" y1="1444" x2="720" y2="1450"/>
		</g>
	</g>
	<text transform="matrix(1 0 0 1 277.2579 952.0295)" class="st1 st3 st17">inspiration</text>
	<text transform="matrix(1 0 0 1 985.6699 952.0298)" class="st1 st3 st17">how  it  works</text>
	<text transform="matrix(1 0 0 1 79.6776 1009.0212)" class="st13 st6 st18">Make use of those empty bottles</text>
	<text transform="matrix(1 0 0 1 811.4755 1009.0207)" class="st13 st6 st18">Make use of those empty bottles.</text>
</g>
</svg>
